<svg id="visual" viewBox="0 0 900 600" width="900" height="600" xmlns="http://www.w3.org/2000/svg" xmlns:xlink="http://www.w3.org/1999/xlink" version="1.1"><path d="M0 407L15 421.2C30 435.3 60 463.7 90 477.3C120 491 150 490 180 485.7C210 481.3 240 473.7 270 472.8C300 472 330 478 360 475.2C390 472.3 420 460.7 450 452.8C480 445 510 441 540 447.2C570 453.3 600 469.7 630 474.5C660 479.3 690 472.7 720 457.7C750 442.7 780 419.3 810 408.2C840 397 870 398 885 398.5L900 399L900 601L885 601C870 601 840 601 810 601C780 601 750 601 720 601C690 601 660 601 630 601C600 601 570 601 540 601C510 601 480 601 450 601C420 601 390 601 360 601C330 601 300 601 270 601C240 601 210 601 180 601C150 601 120 601 90 601C60 601 30 601 15 601L0 601Z" fill="#0066FF" stroke-linecap="round" stroke-linejoin="miter"></path></svg>